<svg xmlns="http://www.w3.org/2000/svg" viewBox="0 0 738.14 174.54"><g id="Capa_2" data-name="Capa 2"><g id="Capa_1-2" data-name="Capa 1"><g id="Isologo"><path id="ernative" d="M275.25,114.35a21.72,21.72,0,0,1-6,5.8,14.91,14.91,0,0,1-8.08,2.11,14.05,14.05,0,0,1-14.42-11.52h46V104q0-15.74-8.09-25T262.24,69.7A40.42,40.42,0,0,0,248,72.16a36.35,36.35,0,0,0-11.42,6.94,33.48,33.48,0,0,0-7.83,10.73A34.53,34.53,0,0,0,225.94,104a34.92,34.92,0,0,0,2.81,14.15,33.11,33.11,0,0,0,7.83,10.81A34.82,34.82,0,0,0,248,135.79a40.2,40.2,0,0,0,14.24,2.46,36.32,36.32,0,0,0,15.21-3.34A33.1,33.1,0,0,0,290,125ZM246.68,96.16a12.31,12.31,0,0,1,3.78-7.56q3.6-3.6,9.76-3.6a11.48,11.48,0,0,1,8.61,3.42,10.26,10.26,0,0,1,3.26,7.74H246.68Zm58.12,40.51h20.66V109.43a66.51,66.51,0,0,1,.52-8.7A16.81,16.81,0,0,1,328.27,94a10.81,10.81,0,0,1,4.92-4.22,22.13,22.13,0,0,1,9-1.49,23.94,23.94,0,0,1,4.14.35c.35.06.76.15,1.23.26,1,.18,2.16.41,3.51.7v-19a19.1,19.1,0,0,0-3.6-.7h-.26a32.18,32.18,0,0,0-3.25-.18q-6.85,0-11.25,3.17a26.15,26.15,0,0,0-7.56,9h.35V71.37H304.8v65.3Zm54.87,0h20.65V104.15a38.42,38.42,0,0,1,.44-6,12.79,12.79,0,0,1,1.67-5.1,9.35,9.35,0,0,1,3.43-3.52,12.13,12.13,0,0,1,6.06-1.32,8.76,8.76,0,0,1,5.63,1.58,9.33,9.33,0,0,1,2.9,3.87,16.17,16.17,0,0,1,1.14,5.36v.53q.18,2.64.18,5.19v31.9h20.65V100.81a79.38,79.38,0,0,0-.88-12.22,26.81,26.81,0,0,0-3.43-9.84,17.87,17.87,0,0,0-7.38-6.59q-4.83-2.46-12.48-2.46-7.47,0-12.3,3.42a20.74,20.74,0,0,0-6.68,7h.35V71.37H359.67v65.3Zm117.35,0h19.07V103.45A66.53,66.53,0,0,0,494.69,89a25,25,0,0,0-4.75-10.54,20.7,20.7,0,0,0-9.14-6.59,41,41,0,0,0-14.5-2.2,47.26,47.26,0,0,0-15.73,2.63,37.58,37.58,0,0,0-13.36,8.27L448.46,92a25.15,25.15,0,0,1,7.47-5.8,19.67,19.67,0,0,1,8.7-1.93,13.13,13.13,0,0,1,8.79,3.07,9.63,9.63,0,0,1,3.6,7.56q-5.89,0-13.54.36a54.39,54.39,0,0,0-14.32,2.54,28.33,28.33,0,0,0-11.34,6.86q-4.57,4.74-4.57,13.18a19.78,19.78,0,0,0,1.93,8.79,19.31,19.31,0,0,0,5.19,6.5,23.5,23.5,0,0,0,7.38,3.87,31.89,31.89,0,0,0,8.79,1.23A31.14,31.14,0,0,0,468.4,136a19.62,19.62,0,0,0,9-7.38H477v8.09Zm0-28.3v4a9.67,9.67,0,0,1-4.57,8.61,18.08,18.08,0,0,1-10.11,3,13,13,0,0,1-6.15-1.58,5.53,5.53,0,0,1-3-5,6.09,6.09,0,0,1,2-4.84,13.35,13.35,0,0,1,5.19-2.72,28,28,0,0,1,6.42-1.23h1.05c1.76-.12,3.25-.18,4.48-.18Zm76.49-37H536V52.47H515.19v18.9H502.36V88.25h12.83v30.14a20.67,20.67,0,0,0,1.84,9.14,16.67,16.67,0,0,0,5,6.16,21.24,21.24,0,0,0,7.65,3.51,40.54,40.54,0,0,0,9.31,1.06,61.39,61.39,0,0,0,7.3-.44,41.22,41.22,0,0,0,7.21-1.58V123c2.63-2.28,2.14-3.25-1.5-2.9s-6.06.62-7.3.62q-5.88,0-7.29-3.17a20.61,20.61,0,0,1-1.41-8.26v-21H553.5V71.37Zm10.21,65.3h20.83V71.37H563.72Zm1.85-76.55a12.08,12.08,0,0,0,20.65-8.52,11.59,11.59,0,0,0-3.51-8.53,12.43,12.43,0,0,0-17.14,0,11.64,11.64,0,0,0-3.52,8.53,12,12,0,0,0,3.52,8.52Zm53.11,76.55H640.3l25.92-65.3H645.05l-15.12,43.68h.44L614.19,71.37h-22.5Zm102-22.32a21.72,21.72,0,0,1-6,5.8,14.91,14.91,0,0,1-8.08,2.11,14.05,14.05,0,0,1-14.42-11.52h46V104q0-15.74-8.09-25T707.64,69.7a40.46,40.46,0,0,0-14.24,2.46A36.35,36.35,0,0,0,682,79.1a33.48,33.48,0,0,0-7.83,10.73A34.53,34.53,0,0,0,671.34,104a34.92,34.92,0,0,0,2.81,14.15A33.11,33.11,0,0,0,682,128.94a34.82,34.82,0,0,0,11.42,6.85,40.23,40.23,0,0,0,14.24,2.46,36.28,36.28,0,0,0,15.2-3.34A33.13,33.13,0,0,0,735.41,125ZM692.09,96.16a12.21,12.21,0,0,1,3.78-7.56c2.39-2.4,5.65-3.6,9.75-3.6a11.46,11.46,0,0,1,8.61,3.42,10.26,10.26,0,0,1,3.26,7.74Z" style="fill:#fff;fill-rule:evenodd"/><polygon points="63.66 98.39 85.46 98.39 74.56 70.89 63.66 98.39" style="fill:#fff;fill-rule:evenodd"/><path d="M200.37,109.12a20.64,20.64,0,0,0,1.41,8.26c.93,2.11,3.37,3.16,7.29,3.16q1.86,0,7.3-.61c.41,0,.78-.06,1.11-.07V88.11H200.37Z" style="fill:#fff;fill-rule:evenodd"/><path d="M210.66,137.68a59.35,59.35,0,0,1-7.3.44,40.53,40.53,0,0,1-9.31-1.05,21.26,21.26,0,0,1-7.65-3.52,16.82,16.82,0,0,1-5-6.15,20.7,20.7,0,0,1-1.84-9.14V88.11H166.71V71.23h12.84V52.33h20.83v18.9h17.1V0H20A20,20,0,0,0,0,20V154.54a20,20,0,0,0,20,20H197.48a20,20,0,0,0,20-20V136.21A39.85,39.85,0,0,1,210.66,137.68Zm-109.73-1.15-8.08-19.77h-36l-7.74,19.77H25.26L66.39,41.88h17.4l41.31,94.65Zm57.85,0H138v-101h20.83Z" style="fill:#fff;fill-rule:evenodd"/></g></g></g></svg>